<svg width="16" height="16" viewBox="0 0 16 16" fill="none" xmlns="http://www.w3.org/2000/svg">
<g id="Group 235">
<path id="Line (Stroke)" fill-rule="evenodd" clip-rule="evenodd" d="M14.666 1.33339C15.4023 2.06973 15.4023 3.26358 14.666 3.99992L3.99986 14.6661C3.26351 15.4024 2.06966 15.4024 1.33332 14.6661C0.596977 13.9297 0.596976 12.7359 1.33332 11.9995L11.9995 1.33339C12.7358 0.597045 13.9297 0.597045 14.666 1.33339Z" fill="#C6C6C6"/>
<path id="Line (Stroke)_2" fill-rule="evenodd" clip-rule="evenodd" d="M14.666 14.6662C13.9297 15.4025 12.7358 15.4025 11.9995 14.6662L1.33335 4.00001C0.597008 3.26367 0.597008 2.06982 1.33335 1.33347C2.0697 0.597131 3.26354 0.59713 3.99989 1.33347L14.666 11.9996C15.4024 12.736 15.4024 13.9298 14.666 14.6662Z" fill="#C6C6C6"/>
</g>
</svg>
