<svg width="190" height="32" viewBox="0 0 190 32" fill="none" xmlns="http://www.w3.org/2000/svg">
<g clip-path="url(#clip0_105_17)">
<path d="M2.67233 11.3328L20.143 1.33127C22.6959 -0.128298 25.9571 0.740491 27.43 3.27041C28.9028 5.80032 28.0261 9.03222 25.4732 10.4918L7.99557 20.4933C5.44266 21.9529 2.18139 21.0841 0.701537 18.5541C-0.771297 16.0242 0.10539 12.7923 2.6583 11.3328" fill="#E84741"/>
<path d="M35.93 28.8754C37.3468 31.3011 40.4748 32.1351 42.9295 30.7311L60.7789 20.5211C63.2266 19.1172 64.0682 16.0173 62.6515 13.5847L62.434 13.2164C61.0173 10.7907 57.8893 9.95666 55.4346 11.3606L37.5852 21.5706C35.1375 22.9746 34.2959 26.0744 35.7126 28.507" fill="#FAB60F"/>
<path d="M36.0354 3.49283C34.6186 5.91849 35.4603 9.02528 37.908 10.4292L55.7573 20.6393C58.205 22.0432 61.3401 21.2092 62.7568 18.7835L62.9742 18.4152C64.3909 15.9895 63.5493 12.8827 61.1016 11.4787L43.2452 1.26873C40.7975 -0.135232 37.6625 0.698806 36.2458 3.12447" fill="#00954B"/>
<path d="M86.3924 17.3726C86.3924 19.5203 85.7471 21.237 84.4637 22.5089C83.0189 24.031 81.1182 24.7886 78.7547 24.7886C76.3911 24.7886 74.5886 24.0171 73.0246 22.4672C71.4606 20.9173 70.6821 19.0129 70.6821 16.7471C70.6821 14.4813 71.4606 12.5769 73.0246 11.027C74.5886 9.47708 76.4963 8.7056 78.7547 8.7056C79.8979 8.7056 80.9779 8.90716 81.9879 9.31027C82.9978 9.71339 83.8324 10.2764 84.4847 11.0062L83.0539 12.424C82.577 11.8541 81.9598 11.4023 81.2024 11.0826C80.4449 10.7629 79.6314 10.5961 78.7617 10.5961C77.0714 10.5961 75.6407 11.1799 74.4694 12.3406C73.3122 13.5152 72.7371 14.9817 72.7371 16.7471C72.7371 18.5125 73.3122 19.979 74.4694 21.1536C75.6407 22.3143 77.0714 22.8981 78.7617 22.8981C80.3117 22.8981 81.5951 22.4672 82.6261 21.6054C83.6501 20.7435 84.2462 19.562 84.4075 18.0607H78.7687V16.2119H86.2942C86.3643 16.6151 86.3994 16.9973 86.3994 17.3726H86.3924Z" fill="black"/>
<path d="M88.8188 24.4411V9.0531H93.567C95.9376 9.0531 97.8452 9.76203 99.283 11.1799C100.721 12.5978 101.443 14.4535 101.443 16.7471C101.443 19.0407 100.721 20.9173 99.283 22.3282C97.8452 23.7391 95.9376 24.448 93.567 24.448H88.8188V24.4411ZM90.8177 10.9366V22.5437H93.574C95.3835 22.5437 96.8072 22.0293 97.8452 21.0076C98.8832 19.9859 99.4092 18.5611 99.4092 16.7401C99.4092 14.9192 98.8902 13.5152 97.8452 12.4866C96.8002 11.4579 95.3765 10.9366 93.574 10.9366H90.8177Z" fill="black"/>
<path d="M118.76 17.3726C118.76 19.5203 118.114 21.237 116.831 22.5089C115.386 24.031 113.485 24.7886 111.122 24.7886C108.758 24.7886 106.956 24.0171 105.392 22.4672C103.828 20.9173 103.049 19.0129 103.049 16.7471C103.049 14.4813 103.828 12.5769 105.392 11.027C106.956 9.47708 108.864 8.7056 111.122 8.7056C112.265 8.7056 113.345 8.90716 114.355 9.31027C115.365 9.71339 116.2 10.2764 116.852 11.0062L115.421 12.424C114.944 11.8541 114.327 11.4023 113.57 11.0826C112.812 10.7629 111.999 10.5961 111.129 10.5961C109.439 10.5961 108.008 11.1799 106.837 12.3406C105.679 13.5152 105.104 14.9817 105.104 16.7471C105.104 18.5125 105.679 19.979 106.837 21.1536C108.008 22.3143 109.439 22.8981 111.129 22.8981C112.679 22.8981 113.962 22.4672 114.993 21.6054C116.017 20.7435 116.613 19.562 116.775 18.0607H111.136V16.2119H118.661C118.732 16.6151 118.767 16.9973 118.767 17.3726H118.76Z" fill="black"/>
<path d="M125.962 24.4411V9.0531H131.58C132.808 9.0531 133.867 9.45622 134.75 10.2555C135.634 11.0409 136.076 12.0417 136.076 13.2441C136.076 14.7663 135.375 15.8297 133.972 16.4482V16.5316C134.764 16.7888 135.403 17.2406 135.879 17.8731C136.356 18.5125 136.595 19.2353 136.595 20.0554C136.595 21.3135 136.132 22.363 135.206 23.197C134.308 24.031 133.2 24.4411 131.889 24.4411H125.969H125.962ZM127.961 10.9366V15.642H131.587C132.296 15.642 132.892 15.4057 133.369 14.9331C133.846 14.4465 134.084 13.8975 134.084 13.2789C134.084 12.6603 133.853 12.1321 133.39 11.6456C132.927 11.1729 132.359 10.9366 131.678 10.9366H127.968H127.961ZM127.961 17.4908V22.5437H131.973C132.695 22.5437 133.313 22.2935 133.818 21.793C134.308 21.2926 134.554 20.6949 134.554 20.0068C134.554 19.3187 134.301 18.7488 133.796 18.2414C133.292 17.741 132.653 17.4908 131.889 17.4908H127.961Z" fill="black"/>
<path d="M144.247 24.7886C142.528 24.7886 141.14 24.2326 140.081 23.1136C139.022 22.0085 138.496 20.5489 138.496 18.7279V9.0531H140.494V18.8113C140.494 20.0693 140.824 21.0702 141.49 21.8C142.157 22.5298 143.075 22.8981 144.247 22.8981C145.418 22.8981 146.337 22.5298 147.003 21.8C147.669 21.0702 147.999 20.0763 147.999 18.8113V9.0531H149.998V18.7279C149.998 20.5906 149.479 22.0641 148.434 23.1553C147.396 24.2465 145.993 24.7886 144.247 24.7886Z" fill="black"/>
<path d="M154.767 24.4411H152.768V9.0531H158.063C159.41 9.0531 160.553 9.49097 161.5 10.3737C162.447 11.2564 162.924 12.3406 162.924 13.6334C162.924 14.6968 162.573 15.635 161.872 16.4621C161.17 17.2892 160.287 17.8105 159.213 18.0399L159.171 18.1024L163.534 24.3577V24.4411H161.17L156.983 18.2067H154.767V24.4411ZM154.767 10.9366V16.3509H157.979C158.786 16.3509 159.473 16.0868 160.041 15.5655C160.602 15.0443 160.89 14.3909 160.89 13.6195C160.89 12.9036 160.623 12.278 160.097 11.7359C159.571 11.2007 158.905 10.9297 158.112 10.9297H154.774L154.767 10.9366Z" fill="black"/>
<path d="M174.902 20.3335C174.902 21.6818 174.405 22.7661 173.409 23.5793C172.399 24.3855 171.164 24.7817 169.72 24.7817C168.429 24.7817 167.3 24.4063 166.311 23.6627C165.329 22.919 164.649 21.8973 164.27 20.6115L166.178 19.84C166.311 20.2987 166.486 20.7157 166.718 21.0841C166.949 21.4594 167.223 21.7791 167.531 22.0432C167.84 22.3073 168.184 22.5159 168.562 22.6688C168.941 22.8217 169.334 22.8912 169.755 22.8912C170.666 22.8912 171.41 22.6549 171.992 22.1892C172.567 21.7235 172.862 21.1049 172.862 20.3265C172.862 19.6801 172.623 19.1311 172.146 18.6723C171.697 18.2275 170.856 17.7966 169.628 17.3796C168.387 16.9348 167.608 16.6359 167.307 16.476C165.659 15.642 164.831 14.4187 164.831 12.7993C164.831 11.6664 165.287 10.7003 166.199 9.89409C167.125 9.0948 168.261 8.69168 169.607 8.69168C170.793 8.69168 171.824 8.99054 172.686 9.59522C173.556 10.186 174.131 10.9227 174.419 11.8124L172.553 12.5839C172.378 12.0139 172.034 11.5344 171.522 11.1521C171.01 10.7698 170.386 10.5822 169.642 10.5822C168.864 10.5822 168.205 10.7976 167.672 11.2285C167.139 11.6317 166.872 12.1529 166.872 12.7993C166.872 13.3275 167.082 13.7863 167.503 14.1755C167.966 14.5647 168.969 15.0234 170.519 15.5516C172.097 16.0799 173.219 16.7332 173.893 17.4977C174.566 18.2623 174.902 19.2075 174.902 20.3265V20.3335Z" fill="black"/>
<path d="M178.002 24.4411H175.786L181.642 9.04614H183.901L189.757 24.4411H187.541L186.047 20.2709H179.517L177.995 24.4411H178.002ZM182.73 11.4788L180.191 18.4221H185.353L182.814 11.4788H182.73Z" fill="black"/>
<path d="M8.03757 11.2772L25.5152 21.2787C28.0681 22.7383 28.9448 25.9702 27.465 28.5001C25.9921 31.03 22.7308 31.8988 20.1779 30.4323L2.7003 20.4377C0.147382 18.9781 -0.729305 15.7462 0.743529 13.2163C2.21636 10.6864 5.47764 9.81762 8.03055 11.2772" fill="#0A7CC0"/>
</g>
<defs>
<clipPath id="clip0_105_17">
<rect width="189.764" height="30.8246" fill="white" transform="translate(0 0.587646)"/>
</clipPath>
</defs>
</svg>
