<svg width="34" height="36" viewBox="0 0 34 36" fill="none" xmlns="http://www.w3.org/2000/svg">
<path d="M33.6373 9.65475V26.529C33.5845 26.8823 33.5474 27.2411 33.4681 27.589C32.6113 31.5032 30.3053 34.0147 26.5396 35.0911C26.0477 35.2325 25.5347 35.2814 25.0323 35.3738H8.61546C8.50968 35.3521 8.4039 35.3249 8.29812 35.314C7.37785 35.2107 6.47873 34.9987 5.64837 34.5964C2.04133 32.8405 0.0897161 29.8995 0.0368269 25.7896C-0.0319291 20.6632 0.0156712 15.5314 0.0209602 10.3995C0.0209602 8.73601 0.380607 7.15405 1.20039 5.71888C3.05151 2.48972 5.8282 0.837092 9.47755 0.820783C14.3804 0.793602 19.2832 0.809911 24.186 0.820783C24.8154 0.820783 25.466 0.858837 26.0795 0.994744C29.8875 1.85911 32.3204 4.24021 33.3676 8.09997C33.5051 8.60554 33.5527 9.13286 33.6426 9.65475H33.6373ZM30.6544 18.1245C30.6544 15.6183 30.6544 13.1068 30.6544 10.6007C30.6544 9.8124 30.5751 9.02957 30.3159 8.27937C29.3639 5.53404 27.0632 3.88141 24.1543 3.87597C19.2726 3.87054 14.3962 3.85967 9.51457 3.89228C8.77413 3.89228 7.99665 4.00101 7.29323 4.24021C4.60645 5.16981 3.00391 7.56178 2.99862 10.5517C2.99333 15.5803 2.98276 20.6089 3.0092 25.6374C3.0092 26.3876 3.11498 27.1759 3.3424 27.888C4.23623 30.6388 6.55807 32.3023 9.44582 32.3077C14.3698 32.3186 19.2938 32.3186 24.2178 32.3077C26.4074 32.3077 28.1792 31.4053 29.4803 29.5787C30.3159 28.4045 30.6597 27.0617 30.6544 25.6211C30.6544 23.1259 30.6544 20.6252 30.6544 18.1299V18.1245Z" fill="#011E49"/>
<path d="M25.0376 35.3736C25.54 35.2812 26.0531 35.2323 26.5449 35.091C30.3107 34.0146 32.6166 31.5084 33.4734 27.5889C33.5475 27.241 33.5845 26.8822 33.6427 26.5288V35.3736H25.0429H25.0376Z" fill="white"/>
<path d="M25.4933 18.108C25.4774 23.0115 21.553 27.0289 16.8089 27.0017C12.033 26.9745 8.12974 22.9354 8.16677 18.0645C8.20379 13.1609 12.0911 9.18158 16.8353 9.18702C21.6006 9.19245 25.5091 13.2262 25.4933 18.108ZM16.8406 12.2585C13.7201 12.2422 11.1709 14.8571 11.155 18.0808C11.1391 21.2882 13.6778 23.9085 16.8194 23.9248C19.9399 23.9411 22.4892 21.3262 22.505 18.1025C22.5209 14.8951 19.9769 12.2748 16.8406 12.2585Z" fill="#011E49"/>
<path d="M25.8525 6.59961C27.0584 6.59961 28.058 7.6325 28.0421 8.85567C28.0262 10.0843 27.0425 11.0791 25.8578 11.0791C24.6572 11.0791 23.6523 10.0462 23.6682 8.82305C23.684 7.59445 24.6625 6.59961 25.8578 6.59961H25.8525Z" fill="#011E49"/>
</svg>
