<svg width="34" height="35" viewBox="0 0 34 35" fill="none" xmlns="http://www.w3.org/2000/svg">
<path d="M33.9995 17.1297C33.9995 21.9843 33.9995 26.8335 33.9995 31.6881C33.9995 32.933 33.259 33.917 32.1219 34.1779C31.9104 34.2268 31.6882 34.254 31.4714 34.254C22.0518 34.254 12.6269 34.254 3.20738 34.254C1.74235 34.254 0.68457 33.1831 0.68457 31.6772C0.68457 21.9735 0.68457 12.2697 0.68457 2.56049C0.68457 1.06551 1.7212 0 3.18623 0C12.627 0 22.0624 0 31.5031 0C32.9629 0 33.9995 1.06551 33.9995 2.56593C33.9995 7.42053 33.9995 12.2697 33.9995 17.1243V17.1297ZM18.413 14.9498C18.413 14.3572 18.4025 13.7484 18.413 13.1395C18.4183 12.884 18.3496 12.797 18.0904 12.797C16.6994 12.8079 15.3137 12.8079 13.9227 12.797C13.69 12.797 13.6001 12.8622 13.6001 13.1123C13.6054 18.3801 13.6054 23.6424 13.6001 28.9102C13.6001 29.1548 13.6636 29.2363 13.9122 29.2309C15.3613 29.22 16.8158 29.2309 18.2649 29.2255C18.6087 29.2255 18.6087 29.2255 18.6087 28.8721C18.6087 26.2681 18.6034 23.6587 18.6087 21.0547C18.6087 20.5546 18.6457 20.049 18.7198 19.5543C18.9684 17.8799 19.7353 17.1025 21.2691 16.9449C22.6865 16.7981 23.6385 17.4777 23.9188 18.9074C24.0404 19.5163 24.0828 20.1523 24.088 20.7775C24.1039 23.4847 24.0986 26.1866 24.088 28.8938C24.088 29.1439 24.1462 29.2363 24.4107 29.2363C25.8863 29.2255 27.3619 29.2255 28.8428 29.2363C29.0967 29.2363 29.1495 29.1494 29.1495 28.9102C29.1284 25.5505 29.1284 22.1909 29.0914 18.8313C29.0808 17.7984 28.901 16.7764 28.5625 15.7978C28.0918 14.4442 27.2561 13.4331 25.9392 12.8894C24.9501 12.4817 23.9135 12.3784 22.8557 12.4219C21.6075 12.4708 20.4863 12.8677 19.5396 13.7103C19.127 14.0745 18.7885 14.5258 18.4077 14.9552L18.413 14.9498ZM5.57682 21.0058C5.57682 23.637 5.57682 26.2736 5.57153 28.9047C5.57153 29.1657 5.64557 29.2363 5.89415 29.2363C7.34332 29.2255 8.79777 29.2255 10.2469 29.2363C10.5167 29.2363 10.5854 29.1548 10.5854 28.8884C10.5801 23.6424 10.5801 18.3964 10.5854 13.1449C10.5854 12.8677 10.5008 12.797 10.2364 12.797C8.79249 12.8079 7.3539 12.797 5.91002 12.8024C5.57153 12.8024 5.57153 12.8024 5.57153 13.1612C5.57153 15.7761 5.57153 18.3909 5.57153 21.0058H5.57682ZM8.09435 4.6589C6.49709 4.65346 5.18544 5.99079 5.16957 7.62711C5.159 9.2743 6.46535 10.6334 8.07319 10.6497C9.64929 10.666 11.0033 9.27974 11.0033 7.64342C11.0033 6.01797 9.68103 4.6589 8.08906 4.65346L8.09435 4.6589Z" fill="#011E49"/>
</svg>
