<svg width="33" height="32" viewBox="0 0 33 32" fill="none" xmlns="http://www.w3.org/2000/svg">
<path fill-rule="evenodd" clip-rule="evenodd" d="M0 16.0001C-8.23376e-07 7.16357 7.3873 0.000122869 16.5 0.00012207C25.6127 0.000121272 33 7.16357 33 16.0001C33 24.8367 25.6127 32.0001 16.5 32.0001C7.3873 32.0001 8.23376e-07 24.8367 0 16.0001ZM16.5 2.23268C8.65884 2.23268 2.30233 8.39658 2.30233 16.0001C2.30233 23.6037 8.65884 29.7676 16.5 29.7676C24.3412 29.7676 30.6977 23.6037 30.6977 16.0001C30.6977 8.39657 24.3412 2.23268 16.5 2.23268ZM17.2209 10.7457C17.6704 10.3097 18.3993 10.3097 18.8489 10.7457L22.3682 14.1584C23.4172 15.1755 23.4172 16.8247 22.3682 17.8419L18.8489 21.2546C18.3993 21.6905 17.6704 21.6905 17.2209 21.2546C16.7713 20.8186 16.7713 20.1118 17.2209 19.6759L19.8604 17.1164L10.3605 17.1164C9.72469 17.1164 9.2093 16.6166 9.2093 16.0001C9.2093 15.3836 9.72469 14.8838 10.3605 14.8838L19.8604 14.8838L17.2209 12.3243C16.7713 11.8884 16.7713 11.1816 17.2209 10.7457Z" fill="#0A7CC0"/>
</svg>
