<svg width="33" height="32" viewBox="0 0 33 32" fill="none" xmlns="http://www.w3.org/2000/svg">
<path fill-rule="evenodd" clip-rule="evenodd" d="M33 16C33 24.8366 25.6127 32 16.5 32C7.3873 32 6.26248e-07 24.8366 1.39876e-06 16C2.17128e-06 7.16344 7.3873 -2.23913e-06 16.5 -1.44248e-06C25.6127 -6.45819e-07 33 7.16344 33 16ZM16.5 29.7674C24.3412 29.7674 30.6977 23.6035 30.6977 16C30.6977 8.39645 24.3412 2.23256 16.5 2.23256C8.65884 2.23256 2.30233 8.39645 2.30233 16C2.30233 23.6035 8.65884 29.7674 16.5 29.7674ZM15.7791 21.2544C15.3296 21.6904 14.6007 21.6904 14.1511 21.2544L10.6318 17.8418C9.58283 16.8246 9.58284 15.1754 10.6318 14.1582L14.1511 10.7456C14.6007 10.3096 15.3296 10.3096 15.7791 10.7456C16.2287 11.1815 16.2287 11.8883 15.7791 12.3242L13.1396 14.8837L22.6395 14.8837C23.2753 14.8837 23.7907 15.3835 23.7907 16C23.7907 16.6165 23.2753 17.1163 22.6395 17.1163L13.1396 17.1163L15.7791 19.6758C16.2287 20.1117 16.2287 20.8185 15.7791 21.2544Z" fill="#0A7CC0"/>
</svg>
