<svg width="42" height="35" viewBox="0 0 42 35" fill="none" xmlns="http://www.w3.org/2000/svg">
<path d="M37.2792 9.07288C37.3057 9.44255 37.3057 9.81765 37.3057 10.1928C37.3057 21.6198 28.8434 34.7974 13.368 34.7974C8.79839 34.7974 4.31868 33.4492 0.473633 30.9159C1.14004 30.9974 1.80644 31.0409 2.47813 31.0409C6.265 31.0409 9.94609 29.7362 12.929 27.3334C9.32728 27.2627 6.1698 24.849 5.0697 21.3263C6.32847 21.5763 7.62954 21.5274 8.86715 21.1795C4.94277 20.364 2.11848 16.8196 2.11848 12.7043V12.5956C3.28734 13.2643 4.59899 13.6394 5.93709 13.6774C2.24013 11.1387 1.10301 6.08292 3.33494 2.13075C7.60839 7.53441 13.9075 10.8179 20.672 11.1658C19.995 8.16502 20.9206 5.01741 23.1049 2.9027C26.4951 -0.369944 31.8211 -0.201419 35.0103 3.2778C36.8931 2.89726 38.702 2.18511 40.3521 1.1794C39.7227 3.17995 38.4111 4.88151 36.6551 5.96333C38.3212 5.76218 39.9501 5.3001 41.4839 4.60426C40.3521 6.34387 38.9294 7.86059 37.2845 9.08375L37.2792 9.07288Z" fill="#011E49"/>
</svg>
