<svg width="24" height="25" viewBox="0 0 24 25" fill="none" xmlns="http://www.w3.org/2000/svg">
<path fill-rule="evenodd" clip-rule="evenodd" d="M0.116211 12.7327C0.11621 6.149 5.45333 0.811883 12.037 0.811882C18.6207 0.811881 23.9578 6.149 23.9578 12.7327C23.9578 19.3163 18.6207 24.6535 12.037 24.6535C5.45333 24.6535 0.116212 19.3163 0.116211 12.7327ZM12.037 2.47525C6.37198 2.47525 1.77958 7.06766 1.77958 12.7327C1.77958 18.3977 6.37198 22.9901 12.037 22.9901C17.702 22.9901 22.2944 18.3977 22.2944 12.7327C22.2944 7.06765 17.702 2.47525 12.037 2.47525ZM9.98598 8.50735C10.2985 8.17076 10.8248 8.15127 11.1614 8.46382L14.1674 11.2552C14.9942 12.0229 14.9942 13.3315 14.1674 14.0993L11.1614 16.8906C10.8248 17.2032 10.2985 17.1837 9.98598 16.8471C9.67343 16.5105 9.69292 15.9843 10.0295 15.6717L13.0356 12.8804C13.1537 12.7707 13.1537 12.5838 13.0356 12.4741L10.0295 9.68272C9.69292 9.37017 9.67343 8.84394 9.98598 8.50735Z" fill="white"/>
</svg>
